<svg width="15" height="14" viewBox="0 0 15 14" fill="none" xmlns="http://www.w3.org/2000/svg">
<path d="M14.4201 9.69424H5.11543L5.58262 8.74268L13.3451 8.72861C13.6076 8.72861 13.8326 8.54111 13.8795 8.28174L14.9545 2.26455C14.9826 2.10674 14.9404 1.94424 14.8373 1.8208C14.7863 1.76005 14.7228 1.71112 14.651 1.67739C14.5792 1.64366 14.501 1.62595 14.4217 1.62549L4.54668 1.59268L4.4623 1.1958C4.40918 0.942676 4.18105 0.758301 3.92168 0.758301H1.50762C1.36133 0.758301 1.22104 0.816412 1.1176 0.91985C1.01417 1.02329 0.956055 1.16358 0.956055 1.30986C0.956055 1.45615 1.01417 1.59644 1.1176 1.69988C1.22104 1.80331 1.36133 1.86143 1.50762 1.86143H3.4748L3.84355 3.61455L4.75137 8.00986L3.58262 9.91768C3.52192 9.9996 3.48536 10.0969 3.47708 10.1985C3.4688 10.3001 3.48912 10.402 3.53574 10.4927C3.62949 10.6786 3.81855 10.7958 4.02793 10.7958H5.00918C4.79999 11.0736 4.687 11.4121 4.6873 11.7599C4.6873 12.6442 5.40605 13.363 6.29043 13.363C7.1748 13.363 7.89355 12.6442 7.89355 11.7599C7.89355 11.4114 7.77793 11.0724 7.57168 10.7958H10.0889C9.87968 11.0736 9.76669 11.4121 9.76699 11.7599C9.76699 12.6442 10.4857 13.363 11.3701 13.363C12.2545 13.363 12.9732 12.6442 12.9732 11.7599C12.9732 11.4114 12.8576 11.0724 12.6514 10.7958H14.4217C14.7248 10.7958 14.9732 10.5489 14.9732 10.2442C14.9723 10.0981 14.9137 9.95827 14.81 9.85523C14.7064 9.75219 14.5663 9.69432 14.4201 9.69424V9.69424ZM4.77637 2.68018L13.7732 2.70986L12.892 7.64424L5.8248 7.65674L4.77637 2.68018ZM6.29043 12.2536C6.01855 12.2536 5.79668 12.0317 5.79668 11.7599C5.79668 11.488 6.01855 11.2661 6.29043 11.2661C6.5623 11.2661 6.78418 11.488 6.78418 11.7599C6.78418 11.8908 6.73216 12.0164 6.63956 12.109C6.54697 12.2016 6.42138 12.2536 6.29043 12.2536V12.2536ZM11.3701 12.2536C11.0982 12.2536 10.8764 12.0317 10.8764 11.7599C10.8764 11.488 11.0982 11.2661 11.3701 11.2661C11.642 11.2661 11.8639 11.488 11.8639 11.7599C11.8639 11.8908 11.8118 12.0164 11.7193 12.109C11.6267 12.2016 11.5011 12.2536 11.3701 12.2536V12.2536Z" fill="white"/>
</svg>
