<svg width="12" height="14" viewBox="0 0 12 14" fill="none" xmlns="http://www.w3.org/2000/svg">
<path d="M11.4145 10.9312C11.1197 10.2331 10.692 9.59891 10.1551 9.06406C9.61983 8.52767 8.98576 8.10001 8.2879 7.80469C8.28165 7.80156 8.2754 7.8 8.26915 7.79688C9.24259 7.09375 9.8754 5.94844 9.8754 4.65625C9.8754 2.51562 8.14102 0.78125 6.0004 0.78125C3.85977 0.78125 2.1254 2.51562 2.1254 4.65625C2.1254 5.94844 2.75821 7.09375 3.73165 7.79844C3.7254 7.80156 3.71915 7.80312 3.7129 7.80625C3.0129 8.10156 2.38477 8.525 1.84571 9.06563C1.30932 9.60089 0.881655 10.235 0.586335 10.9328C0.296214 11.616 0.139744 12.3485 0.125398 13.0906C0.124981 13.1073 0.127906 13.1239 0.134001 13.1394C0.140095 13.1549 0.149237 13.1691 0.160886 13.181C0.172535 13.193 0.186456 13.2025 0.201829 13.2089C0.217202 13.2154 0.233716 13.2188 0.250398 13.2188H1.1879C1.25665 13.2188 1.31134 13.1641 1.3129 13.0969C1.34415 11.8906 1.82852 10.7609 2.68477 9.90469C3.57071 9.01875 4.74727 8.53125 6.0004 8.53125C7.25352 8.53125 8.43009 9.01875 9.31602 9.90469C10.1723 10.7609 10.6566 11.8906 10.6879 13.0969C10.6895 13.1656 10.7441 13.2188 10.8129 13.2188H11.7504C11.7671 13.2188 11.7836 13.2154 11.799 13.2089C11.8143 13.2025 11.8283 13.193 11.8399 13.181C11.8516 13.1691 11.8607 13.1549 11.8668 13.1394C11.8729 13.1239 11.8758 13.1073 11.8754 13.0906C11.8598 12.3437 11.7051 11.6172 11.4145 10.9312V10.9312ZM6.0004 7.34375C5.28321 7.34375 4.60821 7.06406 4.1004 6.55625C3.59259 6.04844 3.3129 5.37344 3.3129 4.65625C3.3129 3.93906 3.59259 3.26406 4.1004 2.75625C4.60821 2.24844 5.28321 1.96875 6.0004 1.96875C6.71759 1.96875 7.39259 2.24844 7.9004 2.75625C8.40821 3.26406 8.6879 3.93906 8.6879 4.65625C8.6879 5.37344 8.40821 6.04844 7.9004 6.55625C7.39259 7.06406 6.71759 7.34375 6.0004 7.34375Z" fill="white"/>
</svg>
